<?xml version="1.0" standalone="no"?>
<!DOCTYPE svg PUBLIC "-//W3C//DTD SVG 20010904//EN"
 "http://www.w3.org/TR/2001/REC-SVG-20010904/DTD/svg10.dtd">
<svg version="1.0" xmlns="http://www.w3.org/2000/svg"
 width="958.000000pt" height="958.000000pt" viewBox="0 0 958.000000 958.000000"
 preserveAspectRatio="xMidYMid meet">
<metadata>
Created by potrace 1.14, written by Peter Selinger 2001-2017
</metadata>
<g transform="translate(0.000000,958.000000) scale(0.100000,-0.100000)"
fill="#000000" stroke="none">
<path d="M8889 8876 c-3 -3 -21 -8 -40 -11 -33 -4 -48 -7 -114 -20 -16 -3 -39
-7 -50 -9 -11 -2 -38 -7 -60 -11 -22 -4 -49 -9 -60 -11 -11 -2 -42 -8 -70 -14
-27 -6 -59 -12 -70 -14 -11 -2 -56 -12 -100 -21 -44 -9 -93 -19 -110 -22 -16
-3 -129 -29 -250 -60 -651 -162 -1096 -373 -1475 -698 -81 -70 -256 -253 -325
-340 -22 -27 -42 -52 -45 -55 -16 -14 -155 -216 -200 -289 -53 -85 -190 -329
-190 -338 0 -2 -13 -23 -28 -46 -16 -23 -32 -49 -37 -56 -15 -27 56 31 145
116 461 440 866 674 1330 767 131 27 160 31 300 43 155 13 595 6 700 -11 14
-3 60 -7 103 -11 43 -4 88 -8 100 -10 26 -4 94 -13 162 -20 28 -3 67 -8 87
-11 21 -3 50 -7 65 -9 15 -2 42 -6 58 -8 81 -14 168 -22 240 -22 300 2 570
272 579 580 9 280 -167 520 -437 593 -61 17 -197 29 -208 18z"/>
<path d="M472 8756 c-229 -56 -412 -262 -457 -513 -56 -320 121 -642 406 -737
118 -39 182 -41 304 -12 11 3 151 32 310 65 274 56 320 65 405 77 19 2 44 7
56 9 11 2 45 7 75 11 30 3 65 7 78 9 126 20 500 27 638 12 234 -26 442 -87
668 -198 253 -123 475 -284 757 -546 111 -104 149 -136 153 -131 2 2 -13 30
-34 63 -21 33 -58 98 -83 145 -54 102 -140 245 -210 349 -228 339 -505 617
-813 817 -85 55 -323 180 -410 216 -75 30 -254 95 -285 103 -3 1 -12 4 -20 7
-52 20 -351 95 -445 113 -16 3 -41 8 -55 11 -40 8 -122 23 -160 29 -19 3 -42
8 -50 10 -8 2 -33 6 -55 10 -22 3 -69 10 -105 16 -36 5 -76 12 -90 14 -14 2
-61 9 -105 15 -91 12 -131 18 -177 25 -200 28 -219 29 -296 11z"/>
<path d="M7230 6887 c-3 -3 -39 -7 -80 -11 -78 -7 -102 -10 -185 -26 -27 -6
-59 -12 -70 -14 -72 -14 -315 -92 -329 -106 -6 -6 -16 -10 -23 -10 -13 0 -176
-78 -245 -118 -260 -149 -495 -359 -674 -602 -60 -81 -184 -274 -184 -285 0
-3 -17 -39 -38 -82 -36 -74 -82 -191 -116 -294 -12 -38 -41 -155 -61 -244 -4
-20 -12 -20 -732 -20 l-728 0 -1 -305 c-1 -344 -4 -383 -40 -530 -113 -458
-430 -833 -860 -1019 -82 -35 -125 -49 -244 -81 -138 -37 -449 -49 -575 -21
-27 6 -63 13 -80 16 -16 3 -34 7 -40 9 -5 2 -23 6 -40 10 -120 30 -328 126
-437 203 -362 254 -590 628 -644 1058 -10 78 -10 270 0 364 4 40 20 124 36
186 167 661 760 1125 1439 1126 324 0 622 -98 881 -290 41 -31 79 -59 85 -63
7 -4 10 130 10 425 l0 431 -80 37 c-467 214 -1070 247 -1565 86 -261 -86 -511
-220 -715 -385 -71 -58 -212 -194 -276 -267 -234 -267 -406 -601 -489 -950
-47 -200 -52 -243 -55 -495 -4 -263 15 -414 81 -642 125 -435 383 -825 736
-1112 64 -53 151 -114 278 -196 65 -42 287 -142 395 -178 172 -59 284 -84 480
-109 123 -15 470 -7 570 13 11 3 36 7 55 10 413 64 867 305 1180 624 278 284
475 630 571 1002 22 88 22 87 35 158 4 25 9 48 10 53 1 4 2 22 3 40 3 61 -14
59 370 59 194 0 354 -2 356 -4 3 -2 7 -146 10 -319 3 -173 7 -435 10 -584 15
-871 19 -1127 30 -1810 3 -203 8 -451 10 -550 l3 -180 64 -12 c34 -6 85 -14
112 -17 27 -4 51 -8 55 -10 3 -2 32 -7 64 -10 32 -4 64 -9 70 -11 7 -2 28 -6
47 -9 88 -13 307 -47 325 -52 11 -2 34 -6 50 -8 37 -5 171 -25 205 -31 14 -2
68 -11 120 -20 52 -8 106 -17 119 -20 l24 -4 -7 287 c-4 158 -9 337 -11 397
-2 61 -7 205 -10 320 -3 116 -8 266 -10 335 -2 69 -7 225 -10 347 -4 121 -8
232 -9 246 -5 46 6 49 75 21 77 -32 251 -92 282 -98 12 -2 40 -9 62 -14 22 -6
56 -14 75 -17 19 -3 53 -10 75 -15 78 -17 192 -25 355 -25 210 0 292 8 490 51
307 65 667 243 913 452 44 37 246 239 282 282 130 153 265 378 350 585 34 81
90 255 101 309 2 11 10 53 19 91 51 241 54 557 9 824 -18 108 -71 300 -111
406 -82 214 -258 507 -398 661 -380 419 -838 665 -1380 739 -51 7 -419 17
-425 12z m350 -712 c102 -14 277 -60 350 -92 100 -44 131 -60 195 -97 252
-146 455 -363 586 -626 157 -316 200 -668 123 -1015 -136 -615 -649 -1083
-1274 -1162 -73 -9 -269 -9 -350 0 -338 40 -665 205 -903 456 -200 213 -351
513 -392 782 -18 120 -22 178 -20 292 5 183 38 358 98 507 12 30 22 57 23 60
0 3 13 32 29 65 142 295 408 559 705 699 84 39 217 88 279 101 11 3 29 7 40 9
139 31 372 41 511 21z"/>
<path d="M7300 5600 c-123 -22 -236 -153 -308 -360 -16 -47 -35 -110 -41 -140
-6 -30 -14 -66 -16 -80 -28 -133 -28 -461 -1 -605 49 -265 147 -459 272 -542
52 -34 64 -38 123 -38 45 0 78 6 104 19 57 28 131 108 176 190 37 67 94 218
105 279 2 15 7 35 10 45 46 153 41 544 -11 747 -82 324 -244 515 -413 485z"/>
<path d="M2044 5571 c-85 -39 -172 -145 -224 -271 -12 -30 -26 -64 -31 -75
-15 -34 -48 -176 -63 -270 -15 -90 -16 -433 -2 -500 3 -16 9 -46 13 -65 3 -19
7 -37 8 -40 0 -3 5 -23 10 -45 5 -22 9 -42 10 -45 36 -154 153 -347 244 -405
109 -68 235 -39 332 77 103 124 161 278 204 543 11 64 13 333 4 415 -57 487
-277 784 -505 681z"/>
</g>
</svg>
